%TF.GenerationSoftware,KiCad,Pcbnew,8.0.6*%
%TF.CreationDate,2024-11-11T17:29:23+03:00*%
%TF.ProjectId,broken-file badge,62726f6b-656e-42d6-9669-6c6520626164,rev?*%
%TF.SameCoordinates,Original*%
%TF.FileFunction,Drillmap*%
%TF.FilePolarity,Positive*%
%FSLAX45Y45*%
G04 Gerber Fmt 4.5, Leading zero omitted, Abs format (unit mm)*
G04 Created by KiCad (PCBNEW 8.0.6) date 2024-11-11 17:29:23*
%MOMM*%
%LPD*%
G01*
G04 APERTURE LIST*
%ADD10C,0.050000*%
%ADD11C,0.200000*%
%ADD12C,0.100000*%
G04 APERTURE END LIST*
D10*
X4987000Y-3211000D02*
X3787000Y-3211000D01*
X5288000Y-3659000D02*
X5288000Y-3511000D01*
X5588000Y-3811000D02*
X5435000Y-3811000D01*
X5288000Y-3511000D02*
X5135000Y-3511000D01*
X4987000Y-3363000D02*
X4987000Y-3211000D01*
X5135000Y-3511000D02*
X5135000Y-3363000D01*
X5435000Y-3811000D02*
X5435000Y-3659000D01*
X5435000Y-3659000D02*
X5288000Y-3659000D01*
X3787000Y-3211000D02*
X3787000Y-5459000D01*
X4289000Y-5459000D02*
X4289000Y-5991000D01*
X4289000Y-5991000D02*
X5074000Y-5991000D01*
X3787000Y-5459000D02*
X4289000Y-5459000D01*
X5074000Y-5459000D02*
X5587000Y-5459000D01*
X5587000Y-5459000D02*
X5588000Y-3811000D01*
X5074000Y-5991000D02*
X5074000Y-5459000D01*
X5135000Y-3363000D02*
X4987000Y-3363000D01*
D11*
D12*
X4377500Y-5549500D02*
X4477500Y-5649500D01*
X4477500Y-5549500D02*
X4377500Y-5649500D01*
X4377500Y-5803500D02*
X4477500Y-5903500D01*
X4477500Y-5803500D02*
X4377500Y-5903500D01*
X4631500Y-5549500D02*
X4731500Y-5649500D01*
X4731500Y-5549500D02*
X4631500Y-5649500D01*
X4631500Y-5803500D02*
X4731500Y-5903500D01*
X4731500Y-5803500D02*
X4631500Y-5903500D01*
X4885500Y-5549500D02*
X4985500Y-5649500D01*
X4985500Y-5549500D02*
X4885500Y-5649500D01*
X4885500Y-5803500D02*
X4985500Y-5903500D01*
X4985500Y-5803500D02*
X4885500Y-5903500D01*
D11*
X4045277Y-6304984D02*
X4045277Y-6104984D01*
X4045277Y-6104984D02*
X4092896Y-6104984D01*
X4092896Y-6104984D02*
X4121467Y-6114508D01*
X4121467Y-6114508D02*
X4140515Y-6133555D01*
X4140515Y-6133555D02*
X4150039Y-6152603D01*
X4150039Y-6152603D02*
X4159562Y-6190698D01*
X4159562Y-6190698D02*
X4159562Y-6219269D01*
X4159562Y-6219269D02*
X4150039Y-6257365D01*
X4150039Y-6257365D02*
X4140515Y-6276412D01*
X4140515Y-6276412D02*
X4121467Y-6295460D01*
X4121467Y-6295460D02*
X4092896Y-6304984D01*
X4092896Y-6304984D02*
X4045277Y-6304984D01*
X4245277Y-6304984D02*
X4245277Y-6171650D01*
X4245277Y-6209746D02*
X4254801Y-6190698D01*
X4254801Y-6190698D02*
X4264324Y-6181174D01*
X4264324Y-6181174D02*
X4283372Y-6171650D01*
X4283372Y-6171650D02*
X4302420Y-6171650D01*
X4369086Y-6304984D02*
X4369086Y-6171650D01*
X4369086Y-6104984D02*
X4359563Y-6114508D01*
X4359563Y-6114508D02*
X4369086Y-6124031D01*
X4369086Y-6124031D02*
X4378610Y-6114508D01*
X4378610Y-6114508D02*
X4369086Y-6104984D01*
X4369086Y-6104984D02*
X4369086Y-6124031D01*
X4492896Y-6304984D02*
X4473848Y-6295460D01*
X4473848Y-6295460D02*
X4464324Y-6276412D01*
X4464324Y-6276412D02*
X4464324Y-6104984D01*
X4597658Y-6304984D02*
X4578610Y-6295460D01*
X4578610Y-6295460D02*
X4569086Y-6276412D01*
X4569086Y-6276412D02*
X4569086Y-6104984D01*
X4826229Y-6304984D02*
X4826229Y-6104984D01*
X4826229Y-6104984D02*
X4892896Y-6247841D01*
X4892896Y-6247841D02*
X4959563Y-6104984D01*
X4959563Y-6104984D02*
X4959563Y-6304984D01*
X5140515Y-6304984D02*
X5140515Y-6200222D01*
X5140515Y-6200222D02*
X5130991Y-6181174D01*
X5130991Y-6181174D02*
X5111944Y-6171650D01*
X5111944Y-6171650D02*
X5073848Y-6171650D01*
X5073848Y-6171650D02*
X5054801Y-6181174D01*
X5140515Y-6295460D02*
X5121467Y-6304984D01*
X5121467Y-6304984D02*
X5073848Y-6304984D01*
X5073848Y-6304984D02*
X5054801Y-6295460D01*
X5054801Y-6295460D02*
X5045277Y-6276412D01*
X5045277Y-6276412D02*
X5045277Y-6257365D01*
X5045277Y-6257365D02*
X5054801Y-6238317D01*
X5054801Y-6238317D02*
X5073848Y-6228793D01*
X5073848Y-6228793D02*
X5121467Y-6228793D01*
X5121467Y-6228793D02*
X5140515Y-6219269D01*
X5235753Y-6171650D02*
X5235753Y-6371650D01*
X5235753Y-6181174D02*
X5254801Y-6171650D01*
X5254801Y-6171650D02*
X5292896Y-6171650D01*
X5292896Y-6171650D02*
X5311944Y-6181174D01*
X5311944Y-6181174D02*
X5321467Y-6190698D01*
X5321467Y-6190698D02*
X5330991Y-6209746D01*
X5330991Y-6209746D02*
X5330991Y-6266888D01*
X5330991Y-6266888D02*
X5321467Y-6285936D01*
X5321467Y-6285936D02*
X5311944Y-6295460D01*
X5311944Y-6295460D02*
X5292896Y-6304984D01*
X5292896Y-6304984D02*
X5254801Y-6304984D01*
X5254801Y-6304984D02*
X5235753Y-6295460D01*
X5416705Y-6285936D02*
X5426229Y-6295460D01*
X5426229Y-6295460D02*
X5416705Y-6304984D01*
X5416705Y-6304984D02*
X5407182Y-6295460D01*
X5407182Y-6295460D02*
X5416705Y-6285936D01*
X5416705Y-6285936D02*
X5416705Y-6304984D01*
X5416705Y-6181174D02*
X5426229Y-6190698D01*
X5426229Y-6190698D02*
X5416705Y-6200222D01*
X5416705Y-6200222D02*
X5407182Y-6190698D01*
X5407182Y-6190698D02*
X5416705Y-6181174D01*
X5416705Y-6181174D02*
X5416705Y-6200222D01*
D12*
X3684500Y-6583500D02*
X3784500Y-6683500D01*
X3784500Y-6583500D02*
X3684500Y-6683500D01*
D11*
X4150039Y-6724984D02*
X4035753Y-6724984D01*
X4092896Y-6724984D02*
X4092896Y-6524984D01*
X4092896Y-6524984D02*
X4073848Y-6553555D01*
X4073848Y-6553555D02*
X4054801Y-6572603D01*
X4054801Y-6572603D02*
X4035753Y-6582127D01*
X4235753Y-6705936D02*
X4245277Y-6715460D01*
X4245277Y-6715460D02*
X4235753Y-6724984D01*
X4235753Y-6724984D02*
X4226229Y-6715460D01*
X4226229Y-6715460D02*
X4235753Y-6705936D01*
X4235753Y-6705936D02*
X4235753Y-6724984D01*
X4369086Y-6524984D02*
X4388134Y-6524984D01*
X4388134Y-6524984D02*
X4407182Y-6534508D01*
X4407182Y-6534508D02*
X4416705Y-6544031D01*
X4416705Y-6544031D02*
X4426229Y-6563079D01*
X4426229Y-6563079D02*
X4435753Y-6601174D01*
X4435753Y-6601174D02*
X4435753Y-6648793D01*
X4435753Y-6648793D02*
X4426229Y-6686888D01*
X4426229Y-6686888D02*
X4416705Y-6705936D01*
X4416705Y-6705936D02*
X4407182Y-6715460D01*
X4407182Y-6715460D02*
X4388134Y-6724984D01*
X4388134Y-6724984D02*
X4369086Y-6724984D01*
X4369086Y-6724984D02*
X4350039Y-6715460D01*
X4350039Y-6715460D02*
X4340515Y-6705936D01*
X4340515Y-6705936D02*
X4330991Y-6686888D01*
X4330991Y-6686888D02*
X4321467Y-6648793D01*
X4321467Y-6648793D02*
X4321467Y-6601174D01*
X4321467Y-6601174D02*
X4330991Y-6563079D01*
X4330991Y-6563079D02*
X4340515Y-6544031D01*
X4340515Y-6544031D02*
X4350039Y-6534508D01*
X4350039Y-6534508D02*
X4369086Y-6524984D01*
X4559563Y-6524984D02*
X4578610Y-6524984D01*
X4578610Y-6524984D02*
X4597658Y-6534508D01*
X4597658Y-6534508D02*
X4607182Y-6544031D01*
X4607182Y-6544031D02*
X4616705Y-6563079D01*
X4616705Y-6563079D02*
X4626229Y-6601174D01*
X4626229Y-6601174D02*
X4626229Y-6648793D01*
X4626229Y-6648793D02*
X4616705Y-6686888D01*
X4616705Y-6686888D02*
X4607182Y-6705936D01*
X4607182Y-6705936D02*
X4597658Y-6715460D01*
X4597658Y-6715460D02*
X4578610Y-6724984D01*
X4578610Y-6724984D02*
X4559563Y-6724984D01*
X4559563Y-6724984D02*
X4540515Y-6715460D01*
X4540515Y-6715460D02*
X4530991Y-6705936D01*
X4530991Y-6705936D02*
X4521467Y-6686888D01*
X4521467Y-6686888D02*
X4511944Y-6648793D01*
X4511944Y-6648793D02*
X4511944Y-6601174D01*
X4511944Y-6601174D02*
X4521467Y-6563079D01*
X4521467Y-6563079D02*
X4530991Y-6544031D01*
X4530991Y-6544031D02*
X4540515Y-6534508D01*
X4540515Y-6534508D02*
X4559563Y-6524984D01*
X4750039Y-6524984D02*
X4769086Y-6524984D01*
X4769086Y-6524984D02*
X4788134Y-6534508D01*
X4788134Y-6534508D02*
X4797658Y-6544031D01*
X4797658Y-6544031D02*
X4807182Y-6563079D01*
X4807182Y-6563079D02*
X4816705Y-6601174D01*
X4816705Y-6601174D02*
X4816705Y-6648793D01*
X4816705Y-6648793D02*
X4807182Y-6686888D01*
X4807182Y-6686888D02*
X4797658Y-6705936D01*
X4797658Y-6705936D02*
X4788134Y-6715460D01*
X4788134Y-6715460D02*
X4769086Y-6724984D01*
X4769086Y-6724984D02*
X4750039Y-6724984D01*
X4750039Y-6724984D02*
X4730991Y-6715460D01*
X4730991Y-6715460D02*
X4721467Y-6705936D01*
X4721467Y-6705936D02*
X4711944Y-6686888D01*
X4711944Y-6686888D02*
X4702420Y-6648793D01*
X4702420Y-6648793D02*
X4702420Y-6601174D01*
X4702420Y-6601174D02*
X4711944Y-6563079D01*
X4711944Y-6563079D02*
X4721467Y-6544031D01*
X4721467Y-6544031D02*
X4730991Y-6534508D01*
X4730991Y-6534508D02*
X4750039Y-6524984D01*
X4902420Y-6724984D02*
X4902420Y-6591650D01*
X4902420Y-6610698D02*
X4911944Y-6601174D01*
X4911944Y-6601174D02*
X4930991Y-6591650D01*
X4930991Y-6591650D02*
X4959563Y-6591650D01*
X4959563Y-6591650D02*
X4978610Y-6601174D01*
X4978610Y-6601174D02*
X4988134Y-6620222D01*
X4988134Y-6620222D02*
X4988134Y-6724984D01*
X4988134Y-6620222D02*
X4997658Y-6601174D01*
X4997658Y-6601174D02*
X5016705Y-6591650D01*
X5016705Y-6591650D02*
X5045277Y-6591650D01*
X5045277Y-6591650D02*
X5064325Y-6601174D01*
X5064325Y-6601174D02*
X5073848Y-6620222D01*
X5073848Y-6620222D02*
X5073848Y-6724984D01*
X5169086Y-6724984D02*
X5169086Y-6591650D01*
X5169086Y-6610698D02*
X5178610Y-6601174D01*
X5178610Y-6601174D02*
X5197658Y-6591650D01*
X5197658Y-6591650D02*
X5226229Y-6591650D01*
X5226229Y-6591650D02*
X5245277Y-6601174D01*
X5245277Y-6601174D02*
X5254801Y-6620222D01*
X5254801Y-6620222D02*
X5254801Y-6724984D01*
X5254801Y-6620222D02*
X5264325Y-6601174D01*
X5264325Y-6601174D02*
X5283372Y-6591650D01*
X5283372Y-6591650D02*
X5311944Y-6591650D01*
X5311944Y-6591650D02*
X5330991Y-6601174D01*
X5330991Y-6601174D02*
X5340515Y-6620222D01*
X5340515Y-6620222D02*
X5340515Y-6724984D01*
X5730991Y-6515460D02*
X5559563Y-6772603D01*
X5988134Y-6524984D02*
X6007182Y-6524984D01*
X6007182Y-6524984D02*
X6026229Y-6534508D01*
X6026229Y-6534508D02*
X6035753Y-6544031D01*
X6035753Y-6544031D02*
X6045277Y-6563079D01*
X6045277Y-6563079D02*
X6054801Y-6601174D01*
X6054801Y-6601174D02*
X6054801Y-6648793D01*
X6054801Y-6648793D02*
X6045277Y-6686888D01*
X6045277Y-6686888D02*
X6035753Y-6705936D01*
X6035753Y-6705936D02*
X6026229Y-6715460D01*
X6026229Y-6715460D02*
X6007182Y-6724984D01*
X6007182Y-6724984D02*
X5988134Y-6724984D01*
X5988134Y-6724984D02*
X5969086Y-6715460D01*
X5969086Y-6715460D02*
X5959563Y-6705936D01*
X5959563Y-6705936D02*
X5950039Y-6686888D01*
X5950039Y-6686888D02*
X5940515Y-6648793D01*
X5940515Y-6648793D02*
X5940515Y-6601174D01*
X5940515Y-6601174D02*
X5950039Y-6563079D01*
X5950039Y-6563079D02*
X5959563Y-6544031D01*
X5959563Y-6544031D02*
X5969086Y-6534508D01*
X5969086Y-6534508D02*
X5988134Y-6524984D01*
X6140515Y-6705936D02*
X6150039Y-6715460D01*
X6150039Y-6715460D02*
X6140515Y-6724984D01*
X6140515Y-6724984D02*
X6130991Y-6715460D01*
X6130991Y-6715460D02*
X6140515Y-6705936D01*
X6140515Y-6705936D02*
X6140515Y-6724984D01*
X6273848Y-6524984D02*
X6292896Y-6524984D01*
X6292896Y-6524984D02*
X6311944Y-6534508D01*
X6311944Y-6534508D02*
X6321467Y-6544031D01*
X6321467Y-6544031D02*
X6330991Y-6563079D01*
X6330991Y-6563079D02*
X6340515Y-6601174D01*
X6340515Y-6601174D02*
X6340515Y-6648793D01*
X6340515Y-6648793D02*
X6330991Y-6686888D01*
X6330991Y-6686888D02*
X6321467Y-6705936D01*
X6321467Y-6705936D02*
X6311944Y-6715460D01*
X6311944Y-6715460D02*
X6292896Y-6724984D01*
X6292896Y-6724984D02*
X6273848Y-6724984D01*
X6273848Y-6724984D02*
X6254801Y-6715460D01*
X6254801Y-6715460D02*
X6245277Y-6705936D01*
X6245277Y-6705936D02*
X6235753Y-6686888D01*
X6235753Y-6686888D02*
X6226229Y-6648793D01*
X6226229Y-6648793D02*
X6226229Y-6601174D01*
X6226229Y-6601174D02*
X6235753Y-6563079D01*
X6235753Y-6563079D02*
X6245277Y-6544031D01*
X6245277Y-6544031D02*
X6254801Y-6534508D01*
X6254801Y-6534508D02*
X6273848Y-6524984D01*
X6407182Y-6524984D02*
X6530991Y-6524984D01*
X6530991Y-6524984D02*
X6464325Y-6601174D01*
X6464325Y-6601174D02*
X6492896Y-6601174D01*
X6492896Y-6601174D02*
X6511944Y-6610698D01*
X6511944Y-6610698D02*
X6521467Y-6620222D01*
X6521467Y-6620222D02*
X6530991Y-6639269D01*
X6530991Y-6639269D02*
X6530991Y-6686888D01*
X6530991Y-6686888D02*
X6521467Y-6705936D01*
X6521467Y-6705936D02*
X6511944Y-6715460D01*
X6511944Y-6715460D02*
X6492896Y-6724984D01*
X6492896Y-6724984D02*
X6435753Y-6724984D01*
X6435753Y-6724984D02*
X6416706Y-6715460D01*
X6416706Y-6715460D02*
X6407182Y-6705936D01*
X6626229Y-6724984D02*
X6664325Y-6724984D01*
X6664325Y-6724984D02*
X6683372Y-6715460D01*
X6683372Y-6715460D02*
X6692896Y-6705936D01*
X6692896Y-6705936D02*
X6711944Y-6677365D01*
X6711944Y-6677365D02*
X6721467Y-6639269D01*
X6721467Y-6639269D02*
X6721467Y-6563079D01*
X6721467Y-6563079D02*
X6711944Y-6544031D01*
X6711944Y-6544031D02*
X6702420Y-6534508D01*
X6702420Y-6534508D02*
X6683372Y-6524984D01*
X6683372Y-6524984D02*
X6645277Y-6524984D01*
X6645277Y-6524984D02*
X6626229Y-6534508D01*
X6626229Y-6534508D02*
X6616706Y-6544031D01*
X6616706Y-6544031D02*
X6607182Y-6563079D01*
X6607182Y-6563079D02*
X6607182Y-6610698D01*
X6607182Y-6610698D02*
X6616706Y-6629746D01*
X6616706Y-6629746D02*
X6626229Y-6639269D01*
X6626229Y-6639269D02*
X6645277Y-6648793D01*
X6645277Y-6648793D02*
X6683372Y-6648793D01*
X6683372Y-6648793D02*
X6702420Y-6639269D01*
X6702420Y-6639269D02*
X6711944Y-6629746D01*
X6711944Y-6629746D02*
X6721467Y-6610698D01*
X6892896Y-6591650D02*
X6892896Y-6724984D01*
X6845277Y-6515460D02*
X6797658Y-6658317D01*
X6797658Y-6658317D02*
X6921467Y-6658317D01*
X6988134Y-6524984D02*
X6988134Y-6563079D01*
X7064325Y-6524984D02*
X7064325Y-6563079D01*
X7359563Y-6801174D02*
X7350039Y-6791650D01*
X7350039Y-6791650D02*
X7330991Y-6763079D01*
X7330991Y-6763079D02*
X7321468Y-6744031D01*
X7321468Y-6744031D02*
X7311944Y-6715460D01*
X7311944Y-6715460D02*
X7302420Y-6667841D01*
X7302420Y-6667841D02*
X7302420Y-6629746D01*
X7302420Y-6629746D02*
X7311944Y-6582127D01*
X7311944Y-6582127D02*
X7321468Y-6553555D01*
X7321468Y-6553555D02*
X7330991Y-6534508D01*
X7330991Y-6534508D02*
X7350039Y-6505936D01*
X7350039Y-6505936D02*
X7359563Y-6496412D01*
X7521468Y-6524984D02*
X7483372Y-6524984D01*
X7483372Y-6524984D02*
X7464325Y-6534508D01*
X7464325Y-6534508D02*
X7454801Y-6544031D01*
X7454801Y-6544031D02*
X7435753Y-6572603D01*
X7435753Y-6572603D02*
X7426229Y-6610698D01*
X7426229Y-6610698D02*
X7426229Y-6686888D01*
X7426229Y-6686888D02*
X7435753Y-6705936D01*
X7435753Y-6705936D02*
X7445277Y-6715460D01*
X7445277Y-6715460D02*
X7464325Y-6724984D01*
X7464325Y-6724984D02*
X7502420Y-6724984D01*
X7502420Y-6724984D02*
X7521468Y-6715460D01*
X7521468Y-6715460D02*
X7530991Y-6705936D01*
X7530991Y-6705936D02*
X7540515Y-6686888D01*
X7540515Y-6686888D02*
X7540515Y-6639269D01*
X7540515Y-6639269D02*
X7530991Y-6620222D01*
X7530991Y-6620222D02*
X7521468Y-6610698D01*
X7521468Y-6610698D02*
X7502420Y-6601174D01*
X7502420Y-6601174D02*
X7464325Y-6601174D01*
X7464325Y-6601174D02*
X7445277Y-6610698D01*
X7445277Y-6610698D02*
X7435753Y-6620222D01*
X7435753Y-6620222D02*
X7426229Y-6639269D01*
X7778610Y-6724984D02*
X7778610Y-6524984D01*
X7864325Y-6724984D02*
X7864325Y-6620222D01*
X7864325Y-6620222D02*
X7854801Y-6601174D01*
X7854801Y-6601174D02*
X7835753Y-6591650D01*
X7835753Y-6591650D02*
X7807182Y-6591650D01*
X7807182Y-6591650D02*
X7788134Y-6601174D01*
X7788134Y-6601174D02*
X7778610Y-6610698D01*
X7988134Y-6724984D02*
X7969087Y-6715460D01*
X7969087Y-6715460D02*
X7959563Y-6705936D01*
X7959563Y-6705936D02*
X7950039Y-6686888D01*
X7950039Y-6686888D02*
X7950039Y-6629746D01*
X7950039Y-6629746D02*
X7959563Y-6610698D01*
X7959563Y-6610698D02*
X7969087Y-6601174D01*
X7969087Y-6601174D02*
X7988134Y-6591650D01*
X7988134Y-6591650D02*
X8016706Y-6591650D01*
X8016706Y-6591650D02*
X8035753Y-6601174D01*
X8035753Y-6601174D02*
X8045277Y-6610698D01*
X8045277Y-6610698D02*
X8054801Y-6629746D01*
X8054801Y-6629746D02*
X8054801Y-6686888D01*
X8054801Y-6686888D02*
X8045277Y-6705936D01*
X8045277Y-6705936D02*
X8035753Y-6715460D01*
X8035753Y-6715460D02*
X8016706Y-6724984D01*
X8016706Y-6724984D02*
X7988134Y-6724984D01*
X8169087Y-6724984D02*
X8150039Y-6715460D01*
X8150039Y-6715460D02*
X8140515Y-6696412D01*
X8140515Y-6696412D02*
X8140515Y-6524984D01*
X8321468Y-6715460D02*
X8302420Y-6724984D01*
X8302420Y-6724984D02*
X8264325Y-6724984D01*
X8264325Y-6724984D02*
X8245277Y-6715460D01*
X8245277Y-6715460D02*
X8235753Y-6696412D01*
X8235753Y-6696412D02*
X8235753Y-6620222D01*
X8235753Y-6620222D02*
X8245277Y-6601174D01*
X8245277Y-6601174D02*
X8264325Y-6591650D01*
X8264325Y-6591650D02*
X8302420Y-6591650D01*
X8302420Y-6591650D02*
X8321468Y-6601174D01*
X8321468Y-6601174D02*
X8330991Y-6620222D01*
X8330991Y-6620222D02*
X8330991Y-6639269D01*
X8330991Y-6639269D02*
X8235753Y-6658317D01*
X8407182Y-6715460D02*
X8426230Y-6724984D01*
X8426230Y-6724984D02*
X8464325Y-6724984D01*
X8464325Y-6724984D02*
X8483373Y-6715460D01*
X8483373Y-6715460D02*
X8492896Y-6696412D01*
X8492896Y-6696412D02*
X8492896Y-6686888D01*
X8492896Y-6686888D02*
X8483373Y-6667841D01*
X8483373Y-6667841D02*
X8464325Y-6658317D01*
X8464325Y-6658317D02*
X8435753Y-6658317D01*
X8435753Y-6658317D02*
X8416706Y-6648793D01*
X8416706Y-6648793D02*
X8407182Y-6629746D01*
X8407182Y-6629746D02*
X8407182Y-6620222D01*
X8407182Y-6620222D02*
X8416706Y-6601174D01*
X8416706Y-6601174D02*
X8435753Y-6591650D01*
X8435753Y-6591650D02*
X8464325Y-6591650D01*
X8464325Y-6591650D02*
X8483373Y-6601174D01*
X8559563Y-6801174D02*
X8569087Y-6791650D01*
X8569087Y-6791650D02*
X8588134Y-6763079D01*
X8588134Y-6763079D02*
X8597658Y-6744031D01*
X8597658Y-6744031D02*
X8607182Y-6715460D01*
X8607182Y-6715460D02*
X8616706Y-6667841D01*
X8616706Y-6667841D02*
X8616706Y-6629746D01*
X8616706Y-6629746D02*
X8607182Y-6582127D01*
X8607182Y-6582127D02*
X8597658Y-6553555D01*
X8597658Y-6553555D02*
X8588134Y-6534508D01*
X8588134Y-6534508D02*
X8569087Y-6505936D01*
X8569087Y-6505936D02*
X8559563Y-6496412D01*
M02*
