%TF.GenerationSoftware,KiCad,Pcbnew,8.0.6*%
%TF.CreationDate,2024-11-11T17:29:18+03:00*%
%TF.ProjectId,broken-file badge,62726f6b-656e-42d6-9669-6c6520626164,rev?*%
%TF.SameCoordinates,Original*%
%TF.FileFunction,Legend,Top*%
%TF.FilePolarity,Positive*%
%FSLAX46Y46*%
G04 Gerber Fmt 4.6, Leading zero omitted, Abs format (unit mm)*
G04 Created by KiCad (PCBNEW 8.0.6) date 2024-11-11 17:29:18*
%MOMM*%
%LPD*%
G01*
G04 APERTURE LIST*
%ADD10C,0.000000*%
G04 APERTURE END LIST*
D10*
%TO.C,G\u002A\u002A\u002A*%
G36*
X50620902Y-47840000D02*
G01*
X50610000Y-48570000D01*
X49860000Y-48580882D01*
X49110000Y-48591765D01*
X49110000Y-47850882D01*
X49110000Y-47110000D01*
X49870902Y-47110000D01*
X50631804Y-47110000D01*
X50620902Y-47840000D01*
G37*
G36*
X51350000Y-34370000D02*
G01*
X51350000Y-35110000D01*
X50610000Y-35110000D01*
X49870000Y-35110000D01*
X49870000Y-34370000D01*
X49870000Y-33630000D01*
X50610000Y-33630000D01*
X51350000Y-33630000D01*
X51350000Y-34370000D01*
G37*
G36*
X49110000Y-46350000D02*
G01*
X49110000Y-47110000D01*
X46870000Y-47110000D01*
X44630000Y-47110000D01*
X44630000Y-47850000D01*
X44630000Y-48590000D01*
X43870000Y-48590000D01*
X43110000Y-48590000D01*
X43110000Y-47850000D01*
X43110000Y-47110000D01*
X43870000Y-47110000D01*
X44630000Y-47110000D01*
X44630000Y-46350000D01*
X44630000Y-45590000D01*
X46870000Y-45590000D01*
X49110000Y-45590000D01*
X49110000Y-46350000D01*
G37*
G36*
X52870000Y-35850000D02*
G01*
X52870550Y-36111045D01*
X52872867Y-36302695D01*
X52877954Y-36435549D01*
X52886812Y-36520209D01*
X52900440Y-36567274D01*
X52919842Y-36587346D01*
X52940000Y-36591089D01*
X53002080Y-36591501D01*
X53129191Y-36591946D01*
X53306361Y-36592385D01*
X53518619Y-36592779D01*
X53680000Y-36593007D01*
X54350000Y-36593835D01*
X54350000Y-37351917D01*
X54350000Y-38110000D01*
X53610000Y-38110000D01*
X52870000Y-38110000D01*
X52870000Y-37350000D01*
X52870000Y-36590000D01*
X52110000Y-36590000D01*
X51350000Y-36590000D01*
X51350000Y-35850000D01*
X51350000Y-35110000D01*
X52110000Y-35110000D01*
X52870000Y-35110000D01*
X52870000Y-35850000D01*
G37*
G36*
X49870000Y-32849117D02*
G01*
X49870000Y-33588234D01*
X49120000Y-33599117D01*
X48370000Y-33610000D01*
X48359745Y-36600000D01*
X48349490Y-39590000D01*
X51349745Y-39590000D01*
X54350000Y-39590000D01*
X54350000Y-38850000D01*
X54350000Y-38110000D01*
X55110000Y-38110000D01*
X55870000Y-38110000D01*
X55870000Y-46350000D01*
X55870000Y-54590000D01*
X46870000Y-54590000D01*
X37870000Y-54590000D01*
X37870000Y-53110000D01*
X39390000Y-53110000D01*
X46870000Y-53110000D01*
X54350000Y-53110000D01*
X54350000Y-47110000D01*
X54350000Y-41110000D01*
X50610000Y-41110000D01*
X46870000Y-41110000D01*
X46870000Y-37350000D01*
X46870000Y-33590000D01*
X43130000Y-33590000D01*
X39390000Y-33590000D01*
X39390000Y-43350000D01*
X39390000Y-53110000D01*
X37870000Y-53110000D01*
X37870000Y-43350000D01*
X37870000Y-32110000D01*
X43870000Y-32110000D01*
X49870000Y-32110000D01*
X49870000Y-32849117D01*
G37*
%TD*%
M02*
