%TF.GenerationSoftware,KiCad,Pcbnew,8.0.6*%
%TF.CreationDate,2024-11-11T17:29:18+03:00*%
%TF.ProjectId,broken-file badge,62726f6b-656e-42d6-9669-6c6520626164,rev?*%
%TF.SameCoordinates,Original*%
%TF.FileFunction,Copper,L2,Bot*%
%TF.FilePolarity,Positive*%
%FSLAX46Y46*%
G04 Gerber Fmt 4.6, Leading zero omitted, Abs format (unit mm)*
G04 Created by KiCad (PCBNEW 8.0.6) date 2024-11-11 17:29:18*
%MOMM*%
%LPD*%
G01*
G04 APERTURE LIST*
G04 Aperture macros list*
%AMRoundRect*
0 Rectangle with rounded corners*
0 $1 Rounding radius*
0 $2 $3 $4 $5 $6 $7 $8 $9 X,Y pos of 4 corners*
0 Add a 4 corners polygon primitive as box body*
4,1,4,$2,$3,$4,$5,$6,$7,$8,$9,$2,$3,0*
0 Add four circle primitives for the rounded corners*
1,1,$1+$1,$2,$3*
1,1,$1+$1,$4,$5*
1,1,$1+$1,$6,$7*
1,1,$1+$1,$8,$9*
0 Add four rect primitives between the rounded corners*
20,1,$1+$1,$2,$3,$4,$5,0*
20,1,$1+$1,$4,$5,$6,$7,0*
20,1,$1+$1,$6,$7,$8,$9,0*
20,1,$1+$1,$8,$9,$2,$3,0*%
G04 Aperture macros list end*
%TA.AperFunction,SMDPad,CuDef*%
%ADD10RoundRect,0.250000X0.375000X0.625000X-0.375000X0.625000X-0.375000X-0.625000X0.375000X-0.625000X0*%
%TD*%
%TA.AperFunction,ComponentPad*%
%ADD11R,1.700000X1.700000*%
%TD*%
%TA.AperFunction,ComponentPad*%
%ADD12O,1.700000X1.700000*%
%TD*%
%TA.AperFunction,SMDPad,CuDef*%
%ADD13RoundRect,0.250000X0.625000X-0.312500X0.625000X0.312500X-0.625000X0.312500X-0.625000X-0.312500X0*%
%TD*%
%TA.AperFunction,Conductor*%
%ADD14C,0.200000*%
%TD*%
G04 APERTURE END LIST*
D10*
%TO.P,D1,1,K*%
%TO.N,GND*%
X44520000Y-39470000D03*
%TO.P,D1,2,A*%
%TO.N,Net-(D2-A)*%
X41720000Y-39470000D03*
%TD*%
D11*
%TO.P,J1,1,Pin_1*%
%TO.N,VCC*%
X44275000Y-55995000D03*
D12*
%TO.P,J1,2,Pin_2*%
%TO.N,GND*%
X44275000Y-58535000D03*
%TO.P,J1,3,Pin_3*%
%TO.N,unconnected-(J1-Pin_3-Pad3)*%
X46815000Y-55995000D03*
%TO.P,J1,4,Pin_4*%
%TO.N,unconnected-(J1-Pin_4-Pad4)*%
X46815000Y-58535000D03*
%TO.P,J1,5,Pin_5*%
%TO.N,unconnected-(J1-Pin_5-Pad5)*%
X49355000Y-55995000D03*
%TO.P,J1,6,Pin_6*%
%TO.N,unconnected-(J1-Pin_6-Pad6)*%
X49355000Y-58535000D03*
%TD*%
D13*
%TO.P,R1,1*%
%TO.N,VCC*%
X41710000Y-45292500D03*
%TO.P,R1,2*%
%TO.N,Net-(D2-A)*%
X41710000Y-42367500D03*
%TD*%
D14*
%TO.N,Net-(D2-A)*%
X41710000Y-42367500D02*
X41710000Y-39480000D01*
X41710000Y-39480000D02*
X41720000Y-39470000D01*
%TO.N,VCC*%
X44275000Y-47857500D02*
X41710000Y-45292500D01*
X44275000Y-55995000D02*
X44275000Y-47857500D01*
%TD*%
%TA.AperFunction,Conductor*%
%TO.N,GND*%
G36*
X49355148Y-32624852D02*
G01*
X49369500Y-32659500D01*
X49369500Y-33695895D01*
X49403607Y-33823184D01*
X49403608Y-33823188D01*
X49469500Y-33937314D01*
X49562686Y-34030500D01*
X49604457Y-34054617D01*
X49676811Y-34096391D01*
X49676813Y-34096391D01*
X49676814Y-34096392D01*
X49777207Y-34123292D01*
X49804104Y-34130499D01*
X49804105Y-34130500D01*
X49804108Y-34130500D01*
X50800500Y-34130500D01*
X50835148Y-34144852D01*
X50849500Y-34179500D01*
X50849500Y-35175895D01*
X50883607Y-35303184D01*
X50883608Y-35303188D01*
X50949500Y-35417314D01*
X51042686Y-35510500D01*
X51084457Y-35534617D01*
X51156811Y-35576391D01*
X51156813Y-35576391D01*
X51156814Y-35576392D01*
X51257207Y-35603292D01*
X51284104Y-35610499D01*
X51284105Y-35610500D01*
X51284108Y-35610500D01*
X51415892Y-35610500D01*
X52330500Y-35610500D01*
X52365148Y-35624852D01*
X52379500Y-35659500D01*
X52379500Y-36655895D01*
X52413607Y-36783184D01*
X52413608Y-36783188D01*
X52479500Y-36897314D01*
X52572686Y-36990500D01*
X52614457Y-37014617D01*
X52686811Y-37056391D01*
X52686813Y-37056391D01*
X52686814Y-37056392D01*
X52787207Y-37083292D01*
X52814104Y-37090499D01*
X52814105Y-37090500D01*
X52814108Y-37090500D01*
X53800500Y-37090500D01*
X53835148Y-37104852D01*
X53849500Y-37139500D01*
X53849500Y-38175895D01*
X53883607Y-38303184D01*
X53883608Y-38303188D01*
X53931907Y-38386842D01*
X53949500Y-38417314D01*
X54042686Y-38510500D01*
X54064075Y-38522849D01*
X54156811Y-38576391D01*
X54156813Y-38576391D01*
X54156814Y-38576392D01*
X54257207Y-38603292D01*
X54284104Y-38610499D01*
X54284105Y-38610500D01*
X54284108Y-38610500D01*
X54415892Y-38610500D01*
X55330166Y-38610500D01*
X55364814Y-38624852D01*
X55379166Y-38659500D01*
X55379166Y-38659530D01*
X55377350Y-41652204D01*
X55373498Y-48002267D01*
X55369834Y-54040530D01*
X55355461Y-54075169D01*
X55320834Y-54089500D01*
X50674105Y-54089500D01*
X50546815Y-54123607D01*
X50546811Y-54123608D01*
X50432685Y-54189500D01*
X50432685Y-54189501D01*
X50339501Y-54282685D01*
X50339500Y-54282685D01*
X50273608Y-54396811D01*
X50273607Y-54396815D01*
X50239500Y-54524104D01*
X50239500Y-55279908D01*
X50225148Y-55314556D01*
X50190500Y-55328908D01*
X50155852Y-55314556D01*
X50152627Y-55310998D01*
X50101410Y-55248590D01*
X49941450Y-55117315D01*
X49758954Y-55019768D01*
X49560934Y-54959700D01*
X49355000Y-54939417D01*
X49149065Y-54959700D01*
X49149064Y-54959700D01*
X48951043Y-55019769D01*
X48768548Y-55117316D01*
X48608590Y-55248590D01*
X48477316Y-55408548D01*
X48379769Y-55591043D01*
X48319700Y-55789064D01*
X48319700Y-55789065D01*
X48319700Y-55789066D01*
X48299417Y-55995000D01*
X48319700Y-56200934D01*
X48379768Y-56398954D01*
X48477315Y-56581450D01*
X48608590Y-56741410D01*
X48768550Y-56872685D01*
X48951046Y-56970232D01*
X49149066Y-57030300D01*
X49355000Y-57050583D01*
X49560934Y-57030300D01*
X49758954Y-56970232D01*
X49941450Y-56872685D01*
X50101410Y-56741410D01*
X50152624Y-56679004D01*
X50185697Y-56661327D01*
X50221585Y-56672213D01*
X50239264Y-56705288D01*
X50239500Y-56710091D01*
X50239500Y-57819908D01*
X50225148Y-57854556D01*
X50190500Y-57868908D01*
X50155852Y-57854556D01*
X50152627Y-57850998D01*
X50101410Y-57788590D01*
X49941450Y-57657315D01*
X49758954Y-57559768D01*
X49560934Y-57499700D01*
X49355000Y-57479417D01*
X49149065Y-57499700D01*
X49149064Y-57499700D01*
X48951043Y-57559769D01*
X48768548Y-57657316D01*
X48608590Y-57788590D01*
X48477316Y-57948548D01*
X48379769Y-58131043D01*
X48319700Y-58329064D01*
X48319700Y-58329065D01*
X48319700Y-58329066D01*
X48299417Y-58535000D01*
X48319700Y-58740934D01*
X48379768Y-58938954D01*
X48477315Y-59121450D01*
X48608590Y-59281410D01*
X48658808Y-59322623D01*
X48676487Y-59355697D01*
X48665601Y-59391585D01*
X48632526Y-59409264D01*
X48627723Y-59409500D01*
X47542277Y-59409500D01*
X47507629Y-59395148D01*
X47493277Y-59360500D01*
X47507629Y-59325852D01*
X47511184Y-59322628D01*
X47561410Y-59281410D01*
X47692685Y-59121450D01*
X47790232Y-58938954D01*
X47850300Y-58740934D01*
X47870583Y-58535000D01*
X47850300Y-58329066D01*
X47790232Y-58131046D01*
X47692685Y-57948550D01*
X47561410Y-57788590D01*
X47401450Y-57657315D01*
X47218954Y-57559768D01*
X47020934Y-57499700D01*
X46815000Y-57479417D01*
X46609065Y-57499700D01*
X46609064Y-57499700D01*
X46411043Y-57559769D01*
X46228548Y-57657316D01*
X46068590Y-57788590D01*
X45937316Y-57948548D01*
X45839769Y-58131043D01*
X45779700Y-58329064D01*
X45779700Y-58329065D01*
X45779700Y-58329066D01*
X45759417Y-58535000D01*
X45779700Y-58740934D01*
X45839768Y-58938954D01*
X45937315Y-59121450D01*
X46068590Y-59281410D01*
X46118808Y-59322623D01*
X46136487Y-59355697D01*
X46125601Y-59391585D01*
X46092526Y-59409264D01*
X46087723Y-59409500D01*
X43439500Y-59409500D01*
X43404852Y-59395148D01*
X43390500Y-59360500D01*
X43390500Y-57094500D01*
X43404852Y-57059852D01*
X43439500Y-57045500D01*
X45144745Y-57045500D01*
X45144748Y-57045500D01*
X45203231Y-57033867D01*
X45269552Y-56989552D01*
X45313867Y-56923231D01*
X45325500Y-56864748D01*
X45325500Y-55995000D01*
X45759417Y-55995000D01*
X45779700Y-56200934D01*
X45839768Y-56398954D01*
X45937315Y-56581450D01*
X46068590Y-56741410D01*
X46228550Y-56872685D01*
X46411046Y-56970232D01*
X46609066Y-57030300D01*
X46815000Y-57050583D01*
X47020934Y-57030300D01*
X47218954Y-56970232D01*
X47401450Y-56872685D01*
X47561410Y-56741410D01*
X47692685Y-56581450D01*
X47790232Y-56398954D01*
X47850300Y-56200934D01*
X47870583Y-55995000D01*
X47850300Y-55789066D01*
X47790232Y-55591046D01*
X47692685Y-55408550D01*
X47561410Y-55248590D01*
X47401450Y-55117315D01*
X47218954Y-55019768D01*
X47020934Y-54959700D01*
X46815000Y-54939417D01*
X46609065Y-54959700D01*
X46609064Y-54959700D01*
X46411043Y-55019769D01*
X46228548Y-55117316D01*
X46068590Y-55248590D01*
X45937316Y-55408548D01*
X45839769Y-55591043D01*
X45779700Y-55789064D01*
X45779700Y-55789065D01*
X45779700Y-55789066D01*
X45759417Y-55995000D01*
X45325500Y-55995000D01*
X45325500Y-55125252D01*
X45313867Y-55066769D01*
X45282462Y-55019769D01*
X45269552Y-55000447D01*
X45208569Y-54959700D01*
X45203231Y-54956133D01*
X45144748Y-54944500D01*
X45144745Y-54944500D01*
X44624500Y-54944500D01*
X44589852Y-54930148D01*
X44575500Y-54895500D01*
X44575500Y-47817935D01*
X44575499Y-47817934D01*
X44555022Y-47741513D01*
X44555021Y-47741510D01*
X44515459Y-47672988D01*
X42734726Y-45892255D01*
X42720374Y-45857607D01*
X42729949Y-45828509D01*
X42737793Y-45817882D01*
X42782646Y-45689699D01*
X42785500Y-45659266D01*
X42785500Y-44925734D01*
X42782646Y-44895301D01*
X42737793Y-44767118D01*
X42737792Y-44767117D01*
X42737791Y-44767114D01*
X42657150Y-44657849D01*
X42547885Y-44577208D01*
X42547876Y-44577204D01*
X42419698Y-44532353D01*
X42389275Y-44529500D01*
X42389266Y-44529500D01*
X41030734Y-44529500D01*
X41030724Y-44529500D01*
X41000301Y-44532353D01*
X41000300Y-44532353D01*
X40872123Y-44577204D01*
X40872114Y-44577208D01*
X40762849Y-44657849D01*
X40682208Y-44767114D01*
X40682204Y-44767123D01*
X40637353Y-44895300D01*
X40637353Y-44895301D01*
X40634500Y-44925724D01*
X40634500Y-45659275D01*
X40637353Y-45689698D01*
X40637353Y-45689699D01*
X40682204Y-45817876D01*
X40682208Y-45817885D01*
X40762849Y-45927150D01*
X40872114Y-46007791D01*
X40872117Y-46007792D01*
X40872118Y-46007793D01*
X40872120Y-46007793D01*
X40872123Y-46007795D01*
X41000301Y-46052646D01*
X41030734Y-46055500D01*
X42027733Y-46055500D01*
X42062381Y-46069852D01*
X43960148Y-47967619D01*
X43974500Y-48002267D01*
X43974500Y-54895500D01*
X43960148Y-54930148D01*
X43925500Y-54944500D01*
X43439500Y-54944500D01*
X43404852Y-54930148D01*
X43390500Y-54895500D01*
X43390500Y-54524105D01*
X43390499Y-54524104D01*
X43356392Y-54396815D01*
X43356391Y-54396811D01*
X43290499Y-54282685D01*
X43197314Y-54189500D01*
X43083188Y-54123608D01*
X43083184Y-54123607D01*
X42955895Y-54089500D01*
X42955892Y-54089500D01*
X38419500Y-54089500D01*
X38384852Y-54075148D01*
X38370500Y-54040500D01*
X38370500Y-42000724D01*
X40634500Y-42000724D01*
X40634500Y-42734275D01*
X40637353Y-42764698D01*
X40637353Y-42764699D01*
X40682204Y-42892876D01*
X40682208Y-42892885D01*
X40762849Y-43002150D01*
X40872114Y-43082791D01*
X40872117Y-43082792D01*
X40872118Y-43082793D01*
X40872120Y-43082793D01*
X40872123Y-43082795D01*
X41000301Y-43127646D01*
X41030734Y-43130500D01*
X41030744Y-43130500D01*
X42389256Y-43130500D01*
X42389266Y-43130500D01*
X42419699Y-43127646D01*
X42547882Y-43082793D01*
X42657150Y-43002150D01*
X42737793Y-42892882D01*
X42782646Y-42764699D01*
X42785500Y-42734266D01*
X42785500Y-42000734D01*
X42782646Y-41970301D01*
X42737793Y-41842118D01*
X42737792Y-41842117D01*
X42737791Y-41842114D01*
X42657150Y-41732849D01*
X42547885Y-41652208D01*
X42547876Y-41652204D01*
X42419698Y-41607353D01*
X42389275Y-41604500D01*
X42389266Y-41604500D01*
X42059500Y-41604500D01*
X42024852Y-41590148D01*
X42010500Y-41555500D01*
X42010500Y-40594500D01*
X42024852Y-40559852D01*
X42059500Y-40545500D01*
X42149256Y-40545500D01*
X42149266Y-40545500D01*
X42179699Y-40542646D01*
X42179707Y-40542643D01*
X42182609Y-40542010D01*
X42183034Y-40543958D01*
X42214315Y-40545583D01*
X42239423Y-40573442D01*
X42242241Y-40589941D01*
X42240000Y-41500000D01*
X43999999Y-41500000D01*
X44000000Y-41500000D01*
X43990000Y-37450000D01*
X43980056Y-37449942D01*
X42250000Y-37439999D01*
X42249999Y-37440000D01*
X42247752Y-38352229D01*
X42233315Y-38386842D01*
X42198631Y-38401108D01*
X42182568Y-38398358D01*
X42179696Y-38397353D01*
X42179698Y-38397353D01*
X42149275Y-38394500D01*
X42149266Y-38394500D01*
X41290734Y-38394500D01*
X41290724Y-38394500D01*
X41260301Y-38397353D01*
X41260300Y-38397353D01*
X41132123Y-38442204D01*
X41132114Y-38442208D01*
X41022849Y-38522849D01*
X40942208Y-38632114D01*
X40942204Y-38632123D01*
X40897353Y-38760300D01*
X40897353Y-38760301D01*
X40894500Y-38790724D01*
X40894500Y-40149275D01*
X40897353Y-40179698D01*
X40897353Y-40179699D01*
X40942204Y-40307876D01*
X40942208Y-40307885D01*
X41022849Y-40417150D01*
X41132114Y-40497791D01*
X41132117Y-40497792D01*
X41132118Y-40497793D01*
X41132120Y-40497793D01*
X41132123Y-40497795D01*
X41258483Y-40542010D01*
X41260301Y-40542646D01*
X41290734Y-40545500D01*
X41360500Y-40545500D01*
X41395148Y-40559852D01*
X41409500Y-40594500D01*
X41409500Y-41555500D01*
X41395148Y-41590148D01*
X41360500Y-41604500D01*
X41030724Y-41604500D01*
X41000301Y-41607353D01*
X41000300Y-41607353D01*
X40872123Y-41652204D01*
X40872114Y-41652208D01*
X40762849Y-41732849D01*
X40682208Y-41842114D01*
X40682204Y-41842123D01*
X40637353Y-41970300D01*
X40637353Y-41970301D01*
X40634500Y-42000724D01*
X38370500Y-42000724D01*
X38370500Y-32659500D01*
X38384852Y-32624852D01*
X38419500Y-32610500D01*
X49320500Y-32610500D01*
X49355148Y-32624852D01*
G37*
%TD.AperFunction*%
%TD*%
M02*
